# xmcd CD database file
#
# Track frame offsets:
#	150
#	22674
#	43100
#	57860
#	76963
#	99006
#	142720
#	173765
#	203195
#
# Disc length: 3985 seconds
#
# Revision: 0
# Processed by: cddbd v1.4PL0 Copyright (c) Steve Scherf et al.
# Submitted via: CDex 1.50
#
DISCID=5f0f8f09
DTITLE=Various Artist - The ABB CD-ROM 2000
DYEAR=2000
DGENRE=Jazz
TTITLE0=Aunt Hagar's Blues - Louis Armstrong and his All-Stars
TTITLE1=Visa från Utanmyra - Jan Johansson
TTITLE2=Takeda No Komoriuta - Jaapan Suite - Winduo
TTITLE3=Two To Tango - Al Di Meola
TTITLE4=Pule (Rain) - Abdullah Ibrahim
TTITLE5=Tango Triste - The New Tango Orchestra
TTITLE6=O Morro Nao Tem Vez - Favela - Stan Getz and Luis Bonfà with Antonio Carlos Jobim
TTITLE7=The Star-Crossed Lovers - Duke Ellington and his Orchestra
TTITLE8=ABB
EXTD=YEAR: 2000
EXTT0=
EXTT1=
EXTT2=
EXTT3=
EXTT4=
EXTT5=
EXTT6=
EXTT7=
EXTT8=
PLAYORDER=
